<svg preserveAspectRatio="none" viewBox="0 0 1440 320" fill="none" xmlns="http://www.w3.org/2000/svg">
<path fill="#640C3F" fill-opacity="1" d="M0,256L40,240C80,224,160,192,240,176C320,160,400,160,480,170.7C560,181,640,203,720,181.3C800,160,880,96,960,90.7C1040,85,1120,139,1200,138.7C1280,139,1360,85,1400,58.7L1440,32L1440,320L1400,320C1360,320,1280,320,1200,320C1120,320,1040,320,960,320C880,320,800,320,720,320C640,320,560,320,480,320C400,320,320,320,240,320C160,320,80,320,40,320L0,320Z"></path>
</svg>